<!--<svg version="1.1" id="Capa_1" xmlns="http://www.w3.org/2000/svg" xmlns:xlink="http://www.w3.org/1999/xlink" x="0px" y="0px"
	 width="841.89px" height="595.28px" viewBox="0 0 841.89 595.28" enable-background="new 0 0 841.89 595.28" xml:space="preserve"> -->
	<svg xmlns="http://www.w3.org/2000/svg" viewBox="0 0 100 100">
	<g stroke="#fff">
		<path d="M646.154,278.337c0-11.543-6.034-21.676-15.119-27.421l0.005-0.01
		c-12.308-7.642-20.505-21.278-20.505-36.832c0-9.446,3.024-18.187,8.156-25.305l-0.058-0.052c3.666-5.252,5.817-11.64,5.817-18.531
		c0-8.193-3.041-15.677-8.055-21.384c-6.281-7.575-52.138-65.749-172.157-137.014c-6.682-4.214-14.595-6.654-23.077-6.654
		c-9.623,0-18.513,3.138-25.702,8.446l-0.002-0.015l-72.371,52.093l-0.14,0.088v-0.002c-6.752,4.342-14.787,6.862-23.411,6.862
		l-54.152,0.015c-17.905,0-32.419,14.514-32.419,32.419l-0.047,438.017c0,7.889,2.819,15.121,7.504,20.74
		c4.472,5.924,16.651,16.335,29.313,23.615c5.017,3.188,10.971,5.035,17.355,5.035c17.905,0,32.421-14.515,32.421-32.419
		l0.125-86.643c0-17.903,14.515-32.419,32.419-32.419c5.077,0,9.882,1.167,14.16,3.25l0.1,0.043
		c26.11,11.047,54.816,17.158,84.951,17.158c105.897,0,194.167-75.448,213.998-175.522
			 C645.845,283.472,646.154,280.94,646.154,278.337"></path>	
		</g>
</svg>
